<svg xmlns="http://www.w3.org/2000/svg" width="94.977" height="102.461" viewBox="0 0 94.977 102.461"><defs><style>.a{fill:#434343;}</style></defs><path class="a" d="M98.46,15.559,62.006.807a11.04,11.04,0,0,0-8.284,0L17.269,15.559a11.043,11.043,0,0,0-6.828,11.427c3.48,32.041,25.168,75.475,47.423,75.475s43.943-43.435,47.423-75.475A11.03,11.03,0,0,0,98.46,15.559ZM93.626,32.366c-2.4,24.408-17.459,58.718-35.762,58.718S24.5,56.774,22.1,32.366a8.32,8.32,0,0,1,5.3-8.585l27.489-10.5a8.319,8.319,0,0,1,5.938,0l27.488,10.5A8.309,8.309,0,0,1,93.626,32.366Z" transform="translate(-10.376 0)"/><path class="a" d="M63.482,65.869a1.106,1.106,0,0,0-.7,1.141,100.18,100.18,0,0,0,11.069,35.759c5.627,10.3,12.175,16.451,17.514,16.451h0V55.293a1.1,1.1,0,0,0-.395.073Z" transform="translate(-43.877 -35.35)"/></svg>