<svg xmlns="http://www.w3.org/2000/svg" width="98.019" height="83.317" viewBox="0 0 98.019 83.317"><defs><style>.a{fill:#434343;}</style></defs><path class="a" d="M144.449,69.862c9.264,0,16.774-9.122,16.774-20.374s-2.466-20.374-16.774-20.374-16.774,9.122-16.774,20.374S135.185,69.862,144.449,69.862Z" transform="translate(-95.44 -29.114)"/><path class="a" d="M131.959,225.419c-.31-19.6-2.87-25.187-22.46-28.723,0,0-2.758,3.514-9.185,3.514s-9.185-3.514-9.185-3.514c-19.376,3.5-22.092,9-22.449,28.086-.029,1.559-.042,1.64-.048,1.459,0,.339,0,.966,0,2.059,0,0,4.664,9.4,31.68,9.4s31.68-9.4,31.68-9.4c0-.7,0-1.191,0-1.523A12.342,12.342,0,0,1,131.959,225.419Z" transform="translate(-51.303 -154.385)"/><path class="a" d="M267.91,78.113c7.524,0,13.623-7.408,13.623-16.547s-2-16.547-13.623-16.547a19.424,19.424,0,0,0-5.084.6c2.684,4.948,3.052,10.958,3.052,15.755a27.938,27.938,0,0,1-4.184,14.912A11.669,11.669,0,0,0,267.91,78.113Z" transform="translate(-195.622 -41.003)"/><path class="a" d="M310.145,204.453c-.252-15.92-2.331-20.456-18.242-23.328,0,0-2.24,2.854-7.46,2.854-.216,0-.425-.007-.631-.016a20.931,20.931,0,0,1,8.556,6.625c3.841,5.267,4.725,12.343,4.907,22.739,10.7-2.115,12.9-6.532,12.9-6.532,0-.576,0-.971,0-1.24A9.355,9.355,0,0,1,310.145,204.453Z" transform="translate(-212.156 -142.746)"/><path class="a" d="M61.578,78.113a11.674,11.674,0,0,0,6.216-1.824A27.937,27.937,0,0,1,63.61,61.377c0-4.8.368-10.808,3.051-15.755a19.42,19.42,0,0,0-5.084-.6c-11.621,0-13.623,7.408-13.623,16.547S54.054,78.113,61.578,78.113Z" transform="translate(-35.847 -41.003)"/><path class="a" d="M26.362,183.962c-.206.009-.415.016-.631.016-5.22,0-7.46-2.854-7.46-2.854C2.36,184,.281,188.532.029,204.452a9.659,9.659,0,0,1-.029,1.1c0,.27,0,.665,0,1.24,0,0,2.194,4.417,12.9,6.532.183-10.4,1.066-17.471,4.908-22.739A20.93,20.93,0,0,1,26.362,183.962Z" transform="translate(0 -142.745)"/></svg>