<svg xmlns="http://www.w3.org/2000/svg" width="121.032" height="102.461" viewBox="0 0 121.032 102.461"><defs><style>.a{fill:#434343;}</style></defs><g transform="translate(66.521 26.917)"><path class="a" d="M303.958,153.145,281.4,224.574l54.511-71.429Z" transform="translate(-281.402 -153.145)"/></g><g transform="translate(0.256 1.651)"><path class="a" d="M18.4,46.263,1.082,67.043H30.52Z" transform="translate(-1.082 -46.263)"/></g><g transform="translate(91.338 1.651)"><path class="a" d="M398.508,46.263l-12.122,20.78h29.438Z" transform="translate(-386.386 -46.263)"/></g><g transform="translate(0 26.917)"><path class="a" d="M31.955,153.145H0l54.511,71.429Z" transform="translate(0 -153.145)"/></g><g transform="translate(65.931)"><path class="a" d="M278.906,39.279,299.937,60.31,312.2,39.279Z" transform="translate(-278.906 -39.279)"/></g><g transform="translate(21.803)"><path class="a" d="M92.232,39.279,104.5,60.31,125.53,39.279Z" transform="translate(-92.232 -39.279)"/></g><g transform="translate(36.658 26.917)"><path class="a" d="M155.076,153.145l23.857,75.545,23.857-75.545Z" transform="translate(-155.076 -153.145)"/></g><g transform="translate(39.014 0.929)"><path class="a" d="M186.542,43.208l-21.5,21.5h43Z" transform="translate(-165.04 -43.208)"/></g></svg>