<svg xmlns="http://www.w3.org/2000/svg" fill="#F0EDE1" width="79.813" height="79.8" viewBox="0 0 79.813 79.8"><path d="M78.644,38.731A1.169,1.169,0,0,0,77.475,39.9a37.57,37.57,0,0,1-64.133,26.56A37.566,37.566,0,1,1,77.123,34.735a1.169,1.169,0,1,0,2.316-.318,39.967,39.967,0,1,0,.374,5.484A1.169,1.169,0,0,0,78.644,38.731Zm0,0" transform="translate(0 0)"/><path d="M130.756,160.957a26.152,26.152,0,0,1-10.207,3.779,1.169,1.169,0,1,0,.34,2.313A28.461,28.461,0,0,0,132,162.935a3.554,3.554,0,0,0,1.516-2c.243.02.487.037.728.049.368.02.737.028,1.105.028A21.788,21.788,0,0,0,147,157.66a2.965,2.965,0,0,0,1.386-2.519,13.046,13.046,0,0,0-8.488-12.214,7.54,7.54,0,1,0-9.077.005,13.068,13.068,0,0,0-4.579,2.9,16.827,16.827,0,0,0-4.376-2.143,9.686,9.686,0,1,0-10.417,0,17.049,17.049,0,0,0-11.817,16.2,3.566,3.566,0,0,0,1.668,3.034,28.783,28.783,0,0,0,13.648,4.375l.069,0a1.169,1.169,0,0,0,.067-2.336,26.431,26.431,0,0,1-12.537-4.018,1.242,1.242,0,0,1-.578-1.057,14.683,14.683,0,0,1,29.367,0,1.242,1.242,0,0,1-.578,1.057C127.634,162.927,131.118,160.728,130.756,160.957ZM109.3,135.536a7.347,7.347,0,1,1,7.347,7.346A7.355,7.355,0,0,1,109.3,135.536Zm26.05-3.823a5.2,5.2,0,0,1,.009,10.4h-.021a5.2,5.2,0,0,1,.012-10.4Zm-1.26,12.815a10.291,10.291,0,0,1,1.27-.075,10.69,10.69,0,0,1,10.682,10.688.638.638,0,0,1-.3.542,19.451,19.451,0,0,1-10.394,2.994c-.328,0-.656-.007-.984-.026-.249-.012-.5-.03-.746-.052a16.873,16.873,0,0,0-4.936-10.731q-.292-.292-.6-.569A10.7,10.7,0,0,1,134.092,144.528Zm0,0" transform="translate(-84.098 -106.233)"/></svg>