<svg xmlns="http://www.w3.org/2000/svg" width="66.148" height="85" viewBox="0 0 66.148 85"><defs><style>.a{fill:#f0ede1;}</style></defs><path class="a" d="M89.155,275.4h6.091a1.037,1.037,0,1,0,0-2.073H89.155a1.037,1.037,0,0,0,0,2.073Z" transform="translate(-84.048 -227.829)"/><path class="a" d="M175.827,142.094h11.2a1.037,1.037,0,0,0,0-2.073h-11.2a1.037,1.037,0,0,0,0,2.073Z" transform="translate(-155.746 -117.558)"/><path class="a" d="M290.137,199.243h7.224a1.037,1.037,0,0,0,0-2.073h-7.224a1.037,1.037,0,1,0,0,2.073Z" transform="translate(-250.307 -164.834)"/><path class="a" d="M175.827,176.161h11.2a1.037,1.037,0,0,0,0-2.073h-11.2a1.037,1.037,0,1,0,0,2.073Z" transform="translate(-155.746 -145.739)"/><path class="a" d="M175.827,210.228h11.2a1.037,1.037,0,0,0,0-2.073h-11.2a1.037,1.037,0,1,0,0,2.073Z" transform="translate(-155.746 -173.921)"/><path class="a" d="M175.827,244.3h11.2a1.037,1.037,0,1,0,0-2.073h-11.2a1.037,1.037,0,1,0,0,2.073Z" transform="translate(-155.746 -202.103)"/><path class="a" d="M175.827,278.363h11.2a1.037,1.037,0,1,0,0-2.073h-11.2a1.037,1.037,0,0,0,0,2.073Z" transform="translate(-155.746 -230.285)"/><path class="a" d="M290.137,232.624h7.224a1.037,1.037,0,0,0,0-2.073h-7.224a1.037,1.037,0,1,0,0,2.073Z" transform="translate(-250.307 -192.448)"/><path class="a" d="M290.137,266.005h7.224a1.037,1.037,0,0,0,0-2.073h-7.224a1.037,1.037,0,1,0,0,2.073Z" transform="translate(-250.307 -220.062)"/><path class="a" d="M290.137,165.863h7.224a1.037,1.037,0,0,0,0-2.073h-7.224a1.037,1.037,0,1,0,0,2.073Z" transform="translate(-250.307 -137.221)"/><path class="a" d="M290.137,132.482h7.224a1.037,1.037,0,0,0,0-2.073h-7.224a1.037,1.037,0,1,0,0,2.073Z" transform="translate(-250.307 -109.607)"/><path class="a" d="M175.827,108.026h11.2a1.037,1.037,0,0,0,0-2.073h-11.2a1.037,1.037,0,1,0,0,2.073Z" transform="translate(-155.746 -89.376)"/><path class="a" d="M374.494,285.84h3.447a1.037,1.037,0,0,0,0-2.073h-3.447a1.037,1.037,0,1,0,0,2.073Z" transform="translate(-320.091 -236.47)"/><path class="a" d="M374.494,263.315h3.447a1.037,1.037,0,0,0,0-2.073h-3.447a1.037,1.037,0,1,0,0,2.073Z" transform="translate(-320.091 -217.836)"/><path class="a" d="M374.494,240.79h3.447a1.037,1.037,0,0,0,0-2.073h-3.447a1.037,1.037,0,1,0,0,2.073Z" transform="translate(-320.091 -199.203)"/><path class="a" d="M89.155,206.841h6.091a1.037,1.037,0,1,0,0-2.073H89.155a1.037,1.037,0,1,0,0,2.073Z" transform="translate(-84.048 -171.119)"/><path class="a" d="M89.155,229.692h6.091a1.037,1.037,0,1,0,0-2.073H89.155a1.037,1.037,0,1,0,0,2.073Z" transform="translate(-84.048 -190.022)"/><path class="a" d="M89.155,252.544h6.091a1.037,1.037,0,1,0,0-2.073H89.155a1.037,1.037,0,1,0,0,2.073Z" transform="translate(-84.048 -208.926)"/><path class="a" d="M68.291,32.029v6.206l-3.153,1.552a1.037,1.037,0,0,0-.579.93V61.926a33.074,33.074,0,1,0,66.148,0,32.737,32.737,0,0,0-3.352-14.518V45.982a1.037,1.037,0,0,0-1.037-1.037h-1.742V43.263a1.037,1.037,0,0,0-1.037-1.037h-1.632V40.245a1.037,1.037,0,1,0-2.073,0v1.981H118.2a1.037,1.037,0,0,0-1.037,1.037v1.682h-.706V26a1.037,1.037,0,0,0-1.037-1.037h-13.55V21a1.037,1.037,0,0,0-1.037-1.037H98.889V15.184a1.037,1.037,0,0,0-1.037-1.037H90.886V11.037a1.037,1.037,0,1,0-2.073,0v3.111H82.632a1.037,1.037,0,0,0-1.037,1.037v4.779H79.646A1.037,1.037,0,0,0,78.61,21V33.157l-2.155,1.06V32.029a1.037,1.037,0,0,0-1.037-1.037H73.41v-.845a1.037,1.037,0,1,0-2.073,0v.845H69.327A1.037,1.037,0,0,0,68.291,32.029Zm5.276,49.415a30.85,30.85,0,0,1-6.916-18.481H78.324a44.514,44.514,0,0,0,2.107,12.921A33.011,33.011,0,0,0,73.567,81.444Zm1.367,1.572a30.936,30.936,0,0,1,6.21-5.138A31.6,31.6,0,0,0,92.212,92.452a30.981,30.981,0,0,1-17.278-9.437ZM96.6,92.688A28.86,28.86,0,0,1,82.962,76.823,30.943,30.943,0,0,1,96.6,73.161Zm0-21.6a33,33,0,0,0-14.318,3.751A42.593,42.593,0,0,1,80.4,62.962H96.6Zm18.272-8.124A42.623,42.623,0,0,1,113,74.8a32.629,32.629,0,0,0-14.33-3.721V62.962Zm-2.551,13.828a28.866,28.866,0,0,1-13.647,15.9V73.155a30.573,30.573,0,0,1,13.647,3.636Zm-9.263,15.661a31.61,31.61,0,0,0,11.08-14.605,30.606,30.606,0,0,1,6.2,5.166,30.98,30.98,0,0,1-17.281,9.44ZM121.7,81.44a32.67,32.67,0,0,0-6.856-5.588,44.532,44.532,0,0,0,2.1-12.888h11.672A30.85,30.85,0,0,1,121.7,81.44Zm6.913-20.55h-1.261V53.08a30.78,30.78,0,0,1,1.261,7.809ZM119.239,44.3H122.5v.645h-3.264Zm6.043,2.718V60.889H116.46V47.018Zm-10.9-19.978V60.889H101.874V27.04ZM83.668,16.22H96.815v3.742H83.668ZM99.8,22.036V60.889H80.683V22.036ZM78.61,35.468V60.889H66.632V41.362Zm-8.246-2.4h4.018v2.172l-4.018,1.976Z" transform="translate(-64.559 -10)"/></svg>