<svg xmlns="http://www.w3.org/2000/svg" width="85" height="85" viewBox="0 0 85 85"><defs><style>.a{fill:#fff;}.b{fill:#f0ede1;}</style></defs><path class="a" d="M0,0H6.368V2.49H0Z" transform="matrix(0.932, -0.363, 0.363, 0.932, 58.185, 68.853)"/><path class="a" d="M0,0H2.49V2.49H0Z" transform="matrix(0.363, -0.932, 0.932, 0.363, 19.882, 68.807)"/><path class="a" d="M0,0H2.49V2.49H0Z" transform="matrix(0.932, -0.363, 0.363, 0.932, 53.543, 70.661)"/><path class="a" d="M0,0H2.49V6.368H0Z" transform="matrix(0.363, -0.932, 0.932, 0.363, 24.524, 70.619)"/><path class="a" d="M0,0H2.49V2.49H0Z" transform="matrix(0.363, -0.932, 0.932, 0.363, 61.914, 17.599)"/><path class="a" d="M0,0H2.49V2.49H0Z" transform="matrix(0.932, -0.363, 0.363, 0.932, 28.129, 12.98)"/><path class="a" d="M0,0H6.368V2.49H0Z" transform="matrix(0.932, -0.363, 0.363, 0.932, 19.874, 16.193)"/><path class="a" d="M0,0H2.49V6.368H0Z" transform="matrix(0.363, -0.932, 0.932, 0.363, 53.662, 14.388)"/><path class="a" d="M248.5,335.593h2.49v2.49H248.5Z" transform="translate(-207.245 -279.879)"/><path class="a" d="M288.558,164.406l-.939,2.306a13.978,13.978,0,0,1,7.78,7.981l2.33-.88A16.476,16.476,0,0,0,288.558,164.406Z" transform="translate(-239.87 -137.112)"/><path class="a" d="M341.017,239.884a16.526,16.526,0,0,0-.314-3.208l-2.443.484a14.044,14.044,0,0,1,.266,2.724Z" transform="translate(-282.104 -197.384)"/><path class="b" d="M76.284,54.412a8.689,8.689,0,0,0-6.214,2.612L61.6,52.133a21.361,21.361,0,0,0,.034-19.2l8.492-4.9a8.7,8.7,0,1,0-1.5-2.008l-8.235,4.754a21.4,21.4,0,0,0-16.643-9.635v-3.8a8.716,8.716,0,1,0-2.49,0v3.8a21.442,21.442,0,0,0-8.536,2.326l1.14,2.214A18.7,18.7,0,0,1,42.5,23.6,18.9,18.9,0,0,1,53.706,57.714V54.026l-7.327-5.693,3.155-3.518V39.857a7.034,7.034,0,1,0-14.067,0v4.957l3.155,3.518-7.327,5.693v3.688a18.9,18.9,0,0,1,.559-30.835l-1.4-2.056a21.432,21.432,0,0,0-5.842,5.953l-8.229-4.751a8.74,8.74,0,1,0-1.5,2.008l8.49,4.9a21.37,21.37,0,0,0,.036,19.2L14.93,57.024a8.7,8.7,0,1,0,1.482,2.019l8.242-4.759a21.4,21.4,0,0,0,16.6,9.571v3.8a8.716,8.716,0,1,0,2.49,0v-3.8a21.4,21.4,0,0,0,16.6-9.571l8.242,4.758a8.714,8.714,0,1,0,7.7-4.632Zm0-38.765a6.226,6.226,0,1,1-6.226,6.226A6.233,6.233,0,0,1,76.284,15.647ZM36.274,8.716A6.226,6.226,0,1,1,42.5,14.941,6.233,6.233,0,0,1,36.274,8.716ZM8.716,28.1a6.226,6.226,0,1,1,6.226-6.226A6.233,6.233,0,0,1,8.716,28.1Zm0,41.255a6.226,6.226,0,1,1,6.226-6.226A6.233,6.233,0,0,1,8.716,69.353Zm29.241-29.5a4.544,4.544,0,0,1,9.087,0v4L44,47.251H41l-3.04-3.389ZM33.784,55.245l7.083-5.5h3.266l7.083,5.5V59.27a18.873,18.873,0,0,1-17.432,0V55.245ZM48.726,76.284A6.226,6.226,0,1,1,42.5,70.059,6.233,6.233,0,0,1,48.726,76.284Zm27.559-6.931a6.226,6.226,0,1,1,6.226-6.226A6.233,6.233,0,0,1,76.284,69.353Z" transform="translate(0 0)"/><path class="a" d="M45,236.75h2.49v11.372H45Z" transform="translate(-37.529 -197.446)"/><path class="a" d="M45,206.75h2.49v2.49H45Z" transform="translate(-37.529 -172.426)"/><path class="a" d="M452,290.25h2.49v2.49H452Z" transform="translate(-376.961 -242.064)"/><path class="a" d="M452,206.75h2.49v11.372H452Z" transform="translate(-376.961 -172.426)"/></svg>